<?xml version="1.0" encoding="utf-8"?>
<!-- Generator: Adobe Illustrator 23.1.0, SVG Export Plug-In . SVG Version: 6.00 Build 0)  -->
<svg version="1.1" id="Layer_1" xmlns="http://www.w3.org/2000/svg" xmlns:xlink="http://www.w3.org/1999/xlink" x="0px" y="0px"
	 width="24px" height="24px" viewBox="0 0 24 24" style="enable-background:new 0 0 24 24;" xml:space="preserve">
<style type="text/css">
	.st0{fill:#040404;stroke:#000000;stroke-width:0.25;stroke-linecap:square;stroke-linejoin:bevel;stroke-miterlimit:10;}
</style>
<g>
	<path class="st0" d="M1.3,23.5C1.1,23.3,1,23.1,1,22.8c0-3.7,0-7.3,0-11c0-0.6,0.1-0.7,0.7-0.7c0-0.3,0-0.6,0-0.9c0-0.3,0-0.7,0-1
		c0-0.4,0.1-0.5,0.5-0.6c0-0.1,0-0.2,0-0.2c0-1.8,0-3.6,0-5.4c0-0.1,0-0.2,0-0.2c0-0.3,0.3-0.5,0.6-0.4C4,2.9,5.1,3.5,6.2,4.1
		c0.2,0.1,0.3,0.3,0.3,0.5c0,1.3,0,2.5,0,3.8c0,0.1,0,0.2,0,0.2c0.4,0.1,0.5,0.2,0.5,0.6c0,0.6,0,1.2,0,1.9c0.1,0,0.2,0,0.2,0
		c0.3,0,0.4,0.2,0.5,0.5c0,0.1,0,0.1,0,0.2c0,3.7,0,7.4,0,11.1c0,0.3-0.1,0.5-0.3,0.6C5.3,23.5,3.3,23.5,1.3,23.5z M6.7,22.6
		c0-3.5,0-7.1,0-10.6c-1.6,0-3.2,0-4.8,0c0,3.5,0,7.1,0,10.6C3.5,22.6,5.1,22.6,6.7,22.6z M3.1,8.6c0.8,0,1.7,0,2.5,0
		c0-1.3,0-2.5,0-3.8c0-0.1-0.1-0.2-0.2-0.2c-0.7-0.3-1.3-0.7-2-1C3.3,3.6,3.2,3.5,3.1,3.5C3.1,5.2,3.1,6.9,3.1,8.6z M2.6,9.5
		c0,0.5,0,1.1,0,1.6c1.2,0,2.3,0,3.4,0c0-0.5,0-1.1,0-1.6C4.9,9.5,3.8,9.5,2.6,9.5z"/>
	<path class="st0" d="M21.2,10.5c-0.1,2.6-1.3,4.9-3.8,6.4c-2.7,1.6-5.5,1.6-8.2,0c-0.4-0.2-0.8-0.5-1.1-0.8
		c-0.2-0.2-0.3-0.5-0.1-0.6c0.2-0.2,0.4-0.2,0.7,0c0.6,0.5,1.2,0.9,1.9,1.2c1.2,0.5,2.5,0.7,3.9,0.5c2.2-0.4,3.9-1.6,5-3.5
		c0.8-1.4,1.1-2.9,0.8-4.5c-0.5-2.8-2.2-4.7-4.9-5.5C12.4,2.6,9.4,3.8,7.7,6c0,0,0,0.1-0.1,0.1C7.5,6.3,7.2,6.3,7,6.1
		C6.8,6,6.8,5.7,7,5.5c0.3-0.4,0.6-0.7,1-1.1c1.7-1.5,3.7-2.2,6-2.1c2,0.2,3.6,1,5,2.4c1,1.1,1.7,2.3,2,3.7
		C21.1,9.1,21.1,9.6,21.2,10.5z"/>
	<path class="st0" d="M21.8,19.1c-0.1,0-0.2,0-0.3,0c-4.3,0-8.7,0-13,0c-0.1,0-0.2,0-0.3,0c-0.2,0-0.4-0.2-0.4-0.4
		c0-0.2,0.2-0.4,0.4-0.4c0.1,0,0.1,0,0.2,0c4.6,0,9.3,0,13.9,0c0.5,0,0.7,0.3,0.5,0.8c-0.3,0.5-0.5,1.1-0.9,1.6
		c-0.8,0.9-1.7,1.4-2.9,1.5c-1.2,0.1-2.3,0-3.5,0c-2.3,0-4.7,0-7,0c-0.1,0-0.2,0-0.3,0c-0.2,0-0.4-0.2-0.4-0.4
		c0-0.2,0.2-0.4,0.4-0.4c0.1,0,0.1,0,0.2,0c3.4,0,6.7,0,10.1,0c1.2,0,2.1-0.5,2.8-1.4c0.1-0.1,0.2-0.3,0.3-0.4
		C21.7,19.3,21.8,19.3,21.8,19.1z"/>
	<path class="st0" d="M23,10.2c-0.1,2.9-1.2,5.4-3.4,7.3c-0.2,0.1-0.3,0.2-0.5,0.1c-0.3-0.1-0.4-0.4-0.2-0.7
		c0.1-0.1,0.3-0.2,0.4-0.4c1.5-1.4,2.5-3.2,2.7-5.2c0.3-2.5-0.3-4.8-1.9-6.8c-1.8-2.2-4.2-3.3-7-3.2c-2.1,0-4,0.8-5.6,2.2
		C7.4,3.7,7.3,3.7,7.3,3.8C7.1,3.9,6.8,3.9,6.7,3.7C6.5,3.5,6.5,3.3,6.7,3.1c0.2-0.2,0.4-0.4,0.7-0.6c1.2-0.9,2.6-1.6,4.2-1.8
		c3.1-0.5,5.9,0.3,8.2,2.4C21.9,5,22.9,7.4,23,10.2z"/>
	<path class="st0" d="M10.4,15.5c-0.3,0-0.5-0.3-0.4-0.6c0-0.1,0.1-0.2,0.2-0.2c2.6-2.6,5.2-5.2,7.8-7.8c0.1-0.1,0.1-0.1,0.2-0.1
		c0.2-0.1,0.4-0.1,0.6,0c0.1,0.1,0.2,0.4,0,0.6c0,0.1-0.1,0.1-0.2,0.2c-2.6,2.6-5.2,5.2-7.8,7.8C10.7,15.4,10.6,15.5,10.4,15.5z"/>
	<path class="st0" d="M12.9,15.5c-0.3,0-0.6-0.4-0.4-0.6c0-0.1,0.1-0.1,0.2-0.2c1.9-1.9,3.9-3.9,5.8-5.8c0.1-0.1,0.2-0.2,0.3-0.2
		c0.2-0.1,0.3,0,0.5,0.1c0.1,0.2,0.1,0.3,0.1,0.5c0,0.1-0.1,0.1-0.2,0.2c-1.9,1.9-3.9,3.9-5.8,5.8C13.2,15.4,13,15.5,12.9,15.5z"/>
</g>
</svg>
