<?xml version="1.0" encoding="utf-8"?>
<!-- Generator: Adobe Illustrator 23.1.0, SVG Export Plug-In . SVG Version: 6.00 Build 0)  -->
<svg version="1.1" id="Isolation_Mode" xmlns="http://www.w3.org/2000/svg" xmlns:xlink="http://www.w3.org/1999/xlink" x="0px"
	 y="0px" width="32px" height="32px" viewBox="0 0 32 32" style="enable-background:new 0 0 32 32;" xml:space="preserve">
<style type="text/css">
	.st0{fill:#020202;}
</style>
<g>
	<path class="st0" d="M17.6,8.3c0,0.1,0,0.2,0.1,0.3c4.4,4.3,8.8,8.6,13.2,12.9c0.3,0.2,0.4,0.5,0.4,0.8c0,1.1,0,2.2,0,3.3
		c0,0.3-0.2,0.5-0.5,0.6c-4.9,1.8-9.7,3.6-14.5,5.4c-0.4,0.1-0.7,0.1-1-0.1c-4.3-2.5-8.6-5-12.9-7.5c-0.4-0.2-0.7-0.5-1.1-0.7
		c-0.3-0.2-0.5-0.4-0.5-0.7c0-2.8,0-5.6,0-8.4c0-3.2,0-6.4,0-9.7c0-0.3,0.1-0.5,0.5-0.7C3.6,2.6,6,1.6,8.7,1
		c1.9-0.4,3.9-0.7,5.8-0.6c0.8,0,1.6,0.1,2.4,0.3c0.4,0.1,0.6,0.3,0.6,0.6C17.6,2.9,17.6,7.7,17.6,8.3z M16.2,1.7
		c-0.5-0.1-1-0.2-1.5-0.2C13,1.4,11.3,1.6,9.7,1.9C7,2.4,4.6,3.4,2.2,4.5C2.1,4.6,2.1,4.7,2.1,4.8c0,2.7,0,5.4,0,8.1
		c0,0.1,0,0.2,0.1,0.3c2.2,2.1,4.5,4.2,6.7,6.3c0.1,0.1,0.2,0.1,0.3,0.1c2.2-0.8,4.5-1.5,6.7-2.2c0.1,0,0.2-0.1,0.2-0.2
		c0-1.4,0-2.7,0-4.1c0-3.7,0-7.4,0-11C16.2,1.8,16.2,1.8,16.2,1.7z M2.2,14.7c-0.1,0,0,0.1,0,0.1c0,2.5,0,5,0,7.4
		c0,0.1,0.1,0.2,0.2,0.2c4.2,2.5,8.4,4.9,12.7,7.4c0,0,0.1,0.1,0.2,0.1c0-0.1,0-0.1,0-0.2c0-0.9,0-1.9,0-2.8c0-0.1,0-0.2-0.1-0.3
		c-2.5-2.3-4.9-4.6-7.4-6.9c-1.7-1.6-3.3-3.1-5-4.7C2.5,15,2.3,14.9,2.2,14.7z M25.3,23.1c-0.2-0.1-0.4-0.2-0.6-0.3
		c-2.6-1.5-5.2-3-7.7-4.6c-0.1-0.1-0.2-0.1-0.3,0c-2.1,0.7-4.3,1.4-6.4,2.1c-0.1,0-0.1,0-0.2,0.1c0,0,0.1,0.1,0.1,0.1
		c0.6,0.6,1.3,1.2,1.9,1.8c1.3,1.2,2.6,2.4,3.8,3.6C16,26,16.1,26,16.2,26c2.7-0.9,5.4-1.7,8.1-2.5C24.7,23.3,24.9,23.2,25.3,23.1z
		 M17.6,10.2C17.6,10.2,17.6,10.2,17.6,10.2c-0.1,0.1-0.1,0.1-0.1,0.2c0,0.9,0,1.8,0,2.7c0,1.4,0,2.7,0,4.1c0,0.1,0,0.2,0.2,0.3
		c0.2,0.1,0.4,0.2,0.6,0.4c2.7,1.6,5.5,3.2,8.2,4.8c0.1,0.1,0.2,0.1,0.3,0c0.8-0.3,1.6-0.5,2.4-0.8c0,0,0.1,0,0.1-0.1
		C25.5,17.9,21.6,14.1,17.6,10.2z M29.9,22.9c-0.1,0-0.1,0-0.2,0c-4.4,1.4-8.7,2.7-13.1,4.1c-0.1,0-0.2,0.1-0.2,0.2c0,1,0,1.9,0,2.9
		c0,0,0,0.1,0,0.1c0.1,0,0.2-0.1,0.2-0.1c1.6-0.6,3.2-1.2,4.9-1.8c2.7-1,5.4-2,8.1-3c0.1-0.1,0.2-0.1,0.2-0.2c0-0.7,0-1.4,0-2.1
		C29.9,23,29.9,22.9,29.9,22.9z"/>
</g>
</svg>
