<?xml version="1.0" encoding="utf-8"?>
<!-- Generator: Adobe Illustrator 23.1.0, SVG Export Plug-In . SVG Version: 6.00 Build 0)  -->
<svg version="1.1" id="Layer_1" xmlns="http://www.w3.org/2000/svg" xmlns:xlink="http://www.w3.org/1999/xlink" x="0px" y="0px"
	 width="32px" height="32px" viewBox="0 0 32 32" style="enable-background:new 0 0 32 32;" xml:space="preserve">
<path d="M31.9,22.5c-0.7-1-3.5-2.3-6-1.8c-0.4-0.6-0.9-1.3-1.3-1.9l0,0c-1.1-1.9-2.3-3.8-4.2-4.2v-5c0-0.3,0.1-0.6,0.3-0.8
	c0.2-0.2,0.5-0.3,0.8-0.3c1.7,0,3.3-0.7,4.5-1.8c1.2-1.2,1.8-2.8,1.8-4.5c0-0.2-0.1-0.4-0.2-0.5c-0.1-0.1-0.3-0.2-0.5-0.2h-1.9
	c-1.2,0-2.3,0.3-3.3,0.9c-1,0.6-1.8,1.5-2.3,2.5c-0.5-1-1.3-1.9-2.3-2.5c-1-0.6-2.1-0.9-3.3-0.9h-1.9c-0.2,0-0.4,0.1-0.5,0.2
	c-0.1,0.1-0.2,0.3-0.2,0.5c0,1.7,0.7,3.3,1.8,4.5c1.2,1.2,2.8,1.8,4.5,1.8c0.3,0,0.6,0.1,0.8,0.3C18.9,9,19,9.3,19,9.6v4.9
	c-1.8,0.3-2.8,1.8-3.6,3.1l0,0c-0.5,0.7-1,1.5-1.6,1.9c-0.2-0.1-0.4-0.2-0.6-0.4c-0.7-0.5-1.5-1-2.8-1c-1.2,0-2.2,0.6-3.3,1.2
	C5.7,20.2,4.2,21,2,21H0.7c-0.2,0-0.4,0.1-0.5,0.2C0.1,21.4,0,21.5,0,21.7v5.6c0,0.2,0.1,0.4,0.2,0.5C0.3,28,0.5,28,0.7,28h2
	c1,0,2.3,0.5,3.7,0.9c2.1,0.7,4.7,1.6,7.6,1.6h0.2c3,0,5.8-0.9,8.7-2.6c0.3-0.2,0.6-0.4,0.9-0.5l0.1-0.1c0.2-0.1,0.3-0.3,0.3-0.4
	c0-0.2,0-0.4-0.1-0.5c0-0.1-0.1-0.2-0.2-0.2c-0.1-0.1-0.2-0.1-0.2-0.1c-0.2,0-0.4,0-0.5,0.1c-0.4,0.2-0.7,0.4-1,0.6
	c-2.7,1.6-5.3,2.4-8.1,2.4c-2.7,0-5.1-0.8-7.2-1.5l0,0c-1.5-0.5-2.9-1-4.2-1H1.4v-4.2H2c2.6,0,4.3-1,5.8-1.8l0,0c1-0.5,1.8-1,2.6-1
	c0.9,0,1.4,0.3,2,0.8c0.9,0.6,1.8,1.1,3.3,1.2c3.9,0.2,4.9,0.9,4.9,1.1c0,0-0.1,0.1-0.3,0.3c0,0-0.1,0-0.1,0c-0.8,0.4-2.8,0.9-8,0.9
	c-0.2,0-0.4,0.1-0.5,0.2c-0.1,0.1-0.2,0.3-0.2,0.5s0.1,0.4,0.2,0.5c0.1,0.1,0.3,0.2,0.5,0.2c4.6,0,7.5-0.3,8.8-1.1l0.3-0.1
	c1-0.4,2.3-0.8,3.3-1.4c1.6-0.9,3.7-0.9,5.4,0.1c-0.6,0.2-1.1,0.4-1.8,0.7c-0.1,0-0.2,0.1-0.2,0.2c-0.1,0.1-0.1,0.1-0.2,0.2
	c0,0.1,0,0.2,0,0.3c0,0.1,0,0.2,0.1,0.3c0,0.1,0.1,0.2,0.2,0.2c0.1,0.1,0.1,0.1,0.2,0.1c0.1,0,0.2,0,0.3,0s0.2,0,0.3-0.1
	c0.7-0.3,1.3-0.5,1.7-0.7l0.1-0.1c0.4-0.2,0.7-0.3,0.9-0.4c0.1-0.1,0.2-0.1,0.3-0.2c0.1-0.1,0.1-0.2,0.2-0.3c0-0.1,0-0.2,0-0.3
	C32,22.7,31.9,22.6,31.9,22.5z M20.5,7.3C20.6,6.1,21.1,5,22,4.1c0.9-0.8,2.1-1.3,3.3-1.3h1.1c-0.2,1.2-0.8,2.2-1.6,3
	c-0.9,0.8-2,1.2-3.2,1.2C21.2,7,20.8,7.1,20.5,7.3L20.5,7.3z M22,22.3c-0.3-1.2-2.4-1.9-6.2-2.1c-0.2,0-0.3,0-0.5-0.1
	c0.5-0.5,0.9-1.1,1.3-1.7c0.9-1.3,1.6-2.5,3.1-2.5c1.5,0,2.6,1.8,3.7,3.6l0,0c0.3,0.5,0.7,1.1,1,1.6c-0.2,0.1-0.4,0.2-0.6,0.3
	C23.3,21.8,22.6,22.1,22,22.3z M19,7.3C18.7,7.1,18.3,7,17.9,7c-1.2,0-2.3-0.4-3.2-1.2c-0.9-0.8-1.5-1.8-1.6-3h1.1
	c1.2,0,2.4,0.5,3.3,1.3C18.3,5,18.9,6.1,19,7.3z"/>
</svg>
