<?xml version="1.0" encoding="utf-8"?>
<!-- Generator: Adobe Illustrator 23.1.0, SVG Export Plug-In . SVG Version: 6.00 Build 0)  -->
<svg version="1.1" id="Layer_1" xmlns="http://www.w3.org/2000/svg" xmlns:xlink="http://www.w3.org/1999/xlink" x="0px" y="0px"
	 width="32px" height="32px" viewBox="0 0 32 32" style="enable-background:new 0 0 32 32;" xml:space="preserve">
<path d="M30.9,26.5L19.2,15.9l2-2.3c1.1,0.6,2.4,0.7,3.6,0.5s2.4-0.8,3.3-1.7c1.8-1.8,3.1-4,3.6-6c0.5-2.1,0.2-4-1-5.2s-3-1.6-5.2-1
	c-2,0.5-4.2,1.8-6,3.6c-0.9,0.9-1.5,2-1.7,3.3c-0.2,1.2,0,2.5,0.5,3.6l-2.4,2.2l-1.8-1.5c0.3-0.8,0.3-1.6,0.1-2.4S13.6,7.4,13,6.8
	L6.5,0.3c-0.1,0-0.2-0.1-0.3-0.1S6,0.1,5.9,0.1c-0.1,0-0.2,0-0.3,0c-0.1,0-0.2,0.1-0.2,0.2S5.3,0.4,5.3,0.5c0,0.1,0,0.2,0,0.3
	c0,0.1,0,0.2,0,0.3c0,0.1,0.1,0.2,0.2,0.2l5.2,5.1L9.9,7.2L4.7,2.1C4.6,2,4.6,2,4.5,1.9c-0.1,0-0.2,0-0.3,0l0,0
	c-0.1,0-0.3,0-0.4,0.1C3.7,2.1,3.6,2.2,3.6,2.3C3.5,2.4,3.5,2.6,3.5,2.7c0,0.1,0.1,0.3,0.2,0.4l5.2,5.1L8.1,9L3,3.8
	C2.9,3.7,2.7,3.7,2.6,3.6c-0.1,0-0.3,0-0.4,0C2.1,3.7,2,3.8,1.9,3.9C1.8,4.1,1.8,4.2,1.8,4.3s0,0.2,0.1,0.3c0,0.1,0.1,0.2,0.2,0.2
	l5.2,5.1l-0.8,0.8L1.2,5.6C1.1,5.5,1.1,5.5,1,5.4c-0.1,0-0.2,0-0.3,0c-0.1,0-0.2,0-0.3,0c-0.1,0-0.1,0.1-0.2,0.2
	C0.1,5.6,0.1,5.7,0,5.8C0,5.9-0.1,6,0,6.1c0,0.1,0,0.2,0.1,0.3c0,0.1,0.1,0.2,0.2,0.2l0,0l1.2,1.2l5.3,5.3c0.6,0.6,1.3,1,2.1,1.2
	c0.8,0.2,1.6,0.1,2.4-0.1l1.6,1.8L1.1,26.5c-0.3,0.3-0.6,0.6-0.8,1C0.1,27.9,0,28.3,0,28.8c0,0.4,0.1,0.9,0.2,1.3
	c0.2,0.4,0.4,0.8,0.7,1.1s0.7,0.5,1.1,0.7s0.8,0.2,1.3,0.2c0.4,0,0.9-0.1,1.3-0.3s0.7-0.5,1-0.8l10.5-11.6L26.5,31
	c0.3,0.3,0.6,0.6,1,0.8s0.8,0.3,1.3,0.3h0.1c0.4,0,0.8-0.1,1.2-0.3s0.7-0.4,1-0.7s0.5-0.7,0.7-1.1c0.2-0.4,0.2-0.8,0.2-1.2
	c0-0.4-0.1-0.9-0.3-1.3C31.5,27.2,31.2,26.8,30.9,26.5z M29.6,27.3l0.3,0.3l0,0c0.2,0.2,0.3,0.4,0.4,0.6s0.2,0.5,0.2,0.7
	s0,0.5-0.1,0.7c-0.1,0.2-0.2,0.4-0.4,0.6c-0.2,0.2-0.4,0.3-0.6,0.4s-0.5,0.1-0.7,0.1c-0.3,0-0.5-0.1-0.7-0.2
	c-0.2-0.1-0.4-0.3-0.6-0.5l-0.3-0.3L29.6,27.3z M28.6,26.4l-2.3,2.3l-0.7-0.8l2.3-2.3L28.6,26.4z M26.8,24.7l-2.2,2.2L17,18.4
	l1.2-1.4L26.8,24.7z M19.2,8.4c0-0.6,0.1-1.3,0.3-1.8c0.2-0.6,0.6-1.1,1-1.6c1.7-1.7,3.6-2.8,5.3-3.3c0.5-0.1,1-0.2,1.5-0.2
	c1,0,1.8,0.3,2.3,0.9c0.8,0.8,1.1,2.2,0.7,3.8C29.9,8,28.7,9.9,27,11.5c-0.6,0.6-1.5,1.1-2.4,1.3s-1.8,0.1-2.7-0.2
	c-0.8-0.3-1.6-0.9-2.1-1.7C19.5,10.2,19.2,9.3,19.2,8.4L19.2,8.4z M20,12.9L7.6,26.7l-2.2-2.2L19.2,12c0.2,0.2,0.4,0.4,0.6,0.6
	C19.9,12.8,19.9,12.9,20,12.9z M12,12.1c-0.3,0.3-0.6,0.5-1,0.7S10.2,13,9.8,13l0,0c-0.4,0-0.8-0.1-1.2-0.2s-0.7-0.4-1-0.7l-0.3-0.4
	l4.3-4.3L12,7.8c0.6,0.6,0.9,1.3,0.9,2.1C12.9,10.7,12.6,11.5,12,12.1L12,12.1z M13.9,15l-1.3-1.6c0.2-0.1,0.3-0.2,0.4-0.4
	c0.1-0.1,0.3-0.3,0.4-0.4L15,14L13.9,15z M4.4,25.5l2.3,2.3L6,28.6l-2.4-2.4L4.4,25.5z M4.5,30.1L4.5,30.1c-0.2,0.2-0.4,0.4-0.6,0.5
	s-0.5,0.2-0.7,0.2s-0.5,0-0.7-0.1c-0.2-0.2-0.4-0.3-0.6-0.5s-0.3-0.4-0.4-0.6c-0.1-0.2-0.1-0.5-0.1-0.7s0.1-0.5,0.2-0.7
	c0.1-0.2,0.3-0.4,0.5-0.6l0,0l0.5-0.4L5,29.6L4.5,30.1z"/>
</svg>
