<?xml version="1.0" encoding="utf-8"?>
<!-- Generator: Adobe Illustrator 23.1.0, SVG Export Plug-In . SVG Version: 6.00 Build 0)  -->
<svg version="1.1" id="Layer_1" xmlns="http://www.w3.org/2000/svg" xmlns:xlink="http://www.w3.org/1999/xlink" x="0px" y="0px"
	 width="32px" height="32px" viewBox="0 0 32 32" style="enable-background:new 0 0 32 32;" xml:space="preserve">
<g>
	<path d="M30.3,7.3h-4.4c0.8-0.8,1.2-1.9,1.2-3V4.1c0-0.7-0.2-1.4-0.6-2S25.6,1,25,0.7c-0.6-0.4-1.3-0.5-2-0.5s-1.4,0.2-2,0.5
		l-2,1.1c-1.3,0.8-2.3,1.8-3,3.1c-0.6-1.3-1.6-2.4-2.9-3.1l-2-1.1c-0.6-0.4-1.3-0.5-2-0.5c-0.7,0-1.4,0.2-2,0.5
		C6.5,1.1,6,1.5,5.6,2.1S5,3.4,5,4.1c0,0.1,0,0.2,0,0.2c0,1.1,0.4,2.2,1.2,3H1.7c-0.5,0-0.9,0.2-1.2,0.5S0,8.6,0,9v4.1
		c0,0.5,0.2,0.9,0.5,1.2s0.8,0.5,1.2,0.5h0.8v15.4c0,0.5,0.2,0.9,0.5,1.2s0.8,0.5,1.2,0.5h23.6c0.5,0,0.9-0.2,1.2-0.5
		c0.3-0.3,0.5-0.8,0.5-1.2V14.8h0.8c0.5,0,0.9-0.2,1.2-0.5s0.5-0.8,0.5-1.2V9c0-0.5-0.2-0.9-0.5-1.2C31.2,7.5,30.8,7.3,30.3,7.3z
		 M19.6,3.1l2-1.1c0.4-0.2,0.9-0.4,1.3-0.4c0.5,0,0.9,0.1,1.3,0.4c0.4,0.2,0.7,0.5,1,0.9s0.4,0.8,0.4,1.3v0.2c0,0.8-0.3,1.6-0.9,2.1
		c-0.6,0.6-1.3,0.9-2.1,0.9h-5.9c0.1-0.9,0.4-1.7,0.9-2.4C18.2,4.1,18.8,3.5,19.6,3.1z M6.4,4.2c0-0.5,0.1-0.9,0.4-1.3
		C7,2.5,7.4,2.2,7.8,2c0.4-0.3,0.9-0.4,1.3-0.4S10,1.7,10.4,2l2,1.1c0.8,0.4,1.4,1,1.9,1.8c0.5,0.7,0.8,1.6,0.9,2.4H9.3
		C8.5,7.3,7.7,7,7.2,6.4C6.8,5.9,6.4,5.1,6.4,4.2L6.4,4.2z M12.8,17H9.9c-0.2,0-0.4,0.1-0.5,0.2s-0.2,0.3-0.2,0.5s0.1,0.4,0.2,0.5
		c0.1,0.1,0.3,0.2,0.5,0.2h2.9v12.1H4.2c-0.1,0-0.1,0-0.2-0.1s-0.1-0.1-0.1-0.2V14.8h8.9V17L12.8,17z M12.8,13.4H1.7
		c-0.1,0-0.1,0-0.2-0.1c-0.1-0.1-0.1-0.1-0.1-0.2V9c0-0.1,0-0.1,0.1-0.2c0.1,0,0.2-0.1,0.2-0.1h11.1V13.4L12.8,13.4z M17.8,30.4
		h-3.6V8.7h3.6V30.4z M28.1,30.2c0,0.1,0,0.1-0.1,0.2s-0.1,0.1-0.2,0.1h-8.6V18.4h2.7c0.2,0,0.4-0.1,0.5-0.2s0.2-0.3,0.2-0.5
		s-0.1-0.4-0.2-0.5S22.1,17,21.9,17h-2.7v-2.2h8.9L28.1,30.2L28.1,30.2z M30.6,13.1c0,0.1,0,0.1-0.1,0.2s-0.1,0.1-0.2,0.1H19.2V8.7
		h11.1c0.1,0,0.1,0,0.2,0.1s0.1,0.1,0.1,0.2L30.6,13.1L30.6,13.1z"/>
	<path d="M25.3,18.4L25.3,18.4c0.3,0,0.4-0.1,0.6-0.2c0.1-0.1,0.2-0.3,0.2-0.5s-0.1-0.4-0.2-0.5S25.6,17,25.4,17h-0.1
		c-0.2,0-0.4,0.1-0.5,0.2s-0.2,0.3-0.2,0.5s0.1,0.4,0.2,0.5C25,18.3,25.1,18.4,25.3,18.4z"/>
	<path d="M6.5,18.4L6.5,18.4c0.3,0,0.4-0.1,0.6-0.2c0.1-0.1,0.2-0.3,0.2-0.5s-0.1-0.4-0.2-0.5C7,17.1,6.8,17,6.6,17H6.5
		c-0.2,0-0.4,0.1-0.5,0.2c-0.2,0.1-0.3,0.3-0.3,0.5s0.1,0.4,0.2,0.5C6.1,18.3,6.3,18.4,6.5,18.4z"/>
</g>
</svg>
