<svg id="Layer_3" data-name="Layer 1" xmlns="http://www.w3.org/2000/svg" width="16" height="16" viewBox="0 0 20 20"><path class="cls-1" d="M6.89,12A5.11,5.11,0,1,1,12,17.11,5.12,5.12,0,0,1,6.89,12ZM17.27,2H6.73A4.74,4.74,0,0,0,2,6.73V17.27A4.75,4.75,0,0,0,6.73,22H17.27A4.74,4.74,0,0,0,22,17.27V6.73A4.73,4.73,0,0,0,17.27,2ZM6.73,3.18H17.27a3.55,3.55,0,0,1,3.55,3.55V17.27a3.55,3.55,0,0,1-3.55,3.55H6.73a3.55,3.55,0,0,1-3.55-3.55V6.73A3.55,3.55,0,0,1,6.73,3.18ZM18.32,4.67a1,1,0,1,0,1,1,1,1,0,0,0-1-1ZM18.44,12A6.45,6.45,0,1,0,12,18.44,6.44,6.44,0,0,0,18.44,12Z" transform="translate(-2 -2)"></path></svg>