<svg id="Layer_4" data-name="Layer 1" xmlns="http://www.w3.org/2000/svg" width="16" height="16" viewBox="0 0 16.01 20"><path class="cls-1" d="M12.47,2C6.85,2,4,5.9,4,9.17a6.38,6.38,0,0,0,.22,1.72,3.77,3.77,0,0,0,2.22,2.67A.39.39,0,0,0,7,13.28c.07-.21.19-.71.25-.92s.06-.39-.16-.64a3.16,3.16,0,0,1-.65-1.2,3.78,3.78,0,0,1-.14-1.06A5.54,5.54,0,0,1,12.16,4c3.18,0,4.94,1.88,4.94,4.4a10.39,10.39,0,0,1-.22,2.13c-.5,2.31-1.8,4-3.55,4a1.79,1.79,0,0,1-1.88-2.21c.18-.69.43-1.4.64-2.1a7.26,7.26,0,0,0,.43-2A1.56,1.56,0,0,0,10.9,6.45c-1.27,0-2.29,1.28-2.29,3a5.08,5.08,0,0,0,.07.84,4.05,4.05,0,0,0,.31,1s-1.31,5.33-1.52,6.26a12.1,12.1,0,0,0,0,4.37c0,.13.19.16.28.06a12.07,12.07,0,0,0,2.15-3.75c.13-.52.83-3.17.83-3.17a3.39,3.39,0,0,0,2.9,1.44c3.1,0,5.4-2.25,6.15-5.51A10.69,10.69,0,0,0,20,8.58C20,5.16,17,2,12.47,2Z" transform="translate(-3.99 -2)"></path></svg>