<?xml version="1.0" encoding="utf-8"?>
<!-- Generator: Adobe Illustrator 23.1.0, SVG Export Plug-In . SVG Version: 6.00 Build 0)  -->
<svg version="1.1" id="Layer_1" xmlns="http://www.w3.org/2000/svg" xmlns:xlink="http://www.w3.org/1999/xlink" x="0px" y="0px"
	 width="32px" height="32px" viewBox="0 0 32 32" style="enable-background:new 0 0 32 32;" xml:space="preserve">
<path d="M30.4,7.9l0.2-0.1c0.6-0.2,1-0.6,1.3-1.1c0.3-0.5,0.4-1.1,0.3-1.7c-0.1-0.6-0.4-1.1-0.9-1.5c-0.5-0.4-1-0.6-1.6-0.6
	S28.6,3,28.1,3.4s-0.8,0.9-0.9,1.5c-0.1,0.6,0,1.2,0.3,1.7c0.3,0.5,0.8,0.9,1.3,1.1l0.2,0.1v11.9h-2.5v-9.2c0-0.6-0.2-1.2-0.6-1.7
	c-0.4-0.5-0.9-0.9-1.5-1l-0.2-0.1V2.2c0-0.1,0-0.2-0.1-0.3c-0.1-0.1-0.2-0.1-0.3-0.1h-8.2c-0.1,0-0.2,0-0.3,0.1
	c-0.1,0.1-0.1,0.2-0.1,0.3v5.4l-0.2,0.1c-0.6,0.2-1.1,0.5-1.5,1c-0.4,0.5-0.6,1.1-0.6,1.7v1.6H6.4c-0.1,0-0.2,0-0.3,0.1
	C6.1,12.2,6,12.3,6,12.4v2.2c0,1.7,0.6,3.3,1.6,4.6l0.4,0.5H3.5V7.9l0.2-0.1c0.6-0.2,1-0.6,1.3-1.1c0.3-0.5,0.4-1.1,0.3-1.7
	C5.3,4.3,5,3.8,4.5,3.4C4,3,3.5,2.8,2.9,2.8C2.3,2.8,1.7,3,1.2,3.4C0.8,3.8,0.5,4.3,0.3,4.9c-0.1,0.6,0,1.2,0.3,1.7
	C1,7.2,1.4,7.6,2,7.8l0.2,0.1v11.9H0.3v6.4c0,0.4,0.1,0.8,0.3,1.2c0.2,0.4,0.4,0.7,0.8,0.9l0.2,0.2l-0.9,1.6c0,0.1-0.1,0.2,0,0.3
	c0,0.1,0.1,0.2,0.2,0.2l0.4,0.2c0,0,0.1,0,0.1,0c0,0,0.1,0,0.1,0c0,0,0.1,0,0.1-0.1c0,0,0.1-0.1,0.1-0.1l1-1.9l1,1.9
	c0,0,0.1,0.1,0.1,0.1c0,0,0.1,0.1,0.1,0.1c0,0,0.1,0,0.1,0c0,0,0.1,0,0.1,0l0.4-0.2c0.1,0,0.2-0.1,0.2-0.2c0-0.1,0-0.2,0-0.3
	l-0.9-1.6l0.2-0.2c0.3-0.2,0.6-0.5,0.8-0.9c0.2-0.4,0.3-0.8,0.3-1.2v-1.3h21.8v1.3c0,0.4,0.1,0.8,0.3,1.2c0.2,0.4,0.4,0.7,0.8,0.9
	l0.2,0.2l-0.9,1.6c0,0.1-0.1,0.2,0,0.3c0,0.1,0.1,0.2,0.2,0.2l0.4,0.2c0,0,0.1,0,0.1,0s0.1,0,0.1,0c0,0,0.1,0,0.1-0.1
	c0,0,0.1-0.1,0.1-0.1l1-1.9l1,1.9c0,0,0.1,0.1,0.1,0.1c0,0,0.1,0.1,0.1,0.1c0,0,0.1,0,0.1,0c0,0,0.1,0,0.1,0l0.4-0.2
	c0.1,0,0.2-0.1,0.2-0.2c0-0.1,0-0.2,0-0.3L31,28.3l0.2-0.2c0.3-0.2,0.6-0.5,0.8-0.9c0.2-0.4,0.3-0.8,0.3-1.2v-6.4h-1.9V7.9z
	 M28.5,5.4c0-0.3,0.1-0.5,0.2-0.7c0.1-0.2,0.3-0.4,0.6-0.5c0.2-0.1,0.5-0.1,0.7-0.1c0.2,0,0.5,0.2,0.7,0.3C30.8,4.6,31,4.9,31,5.1
	c0,0.2,0,0.5-0.1,0.7c-0.1,0.2-0.3,0.4-0.5,0.6c-0.2,0.1-0.5,0.2-0.7,0.2c-0.2,0-0.3,0-0.5-0.1c-0.2-0.1-0.3-0.2-0.4-0.3
	c-0.1-0.1-0.2-0.3-0.3-0.4C28.5,5.7,28.5,5.5,28.5,5.4z M16.9,3.1h6c0.1,0,0.1,0,0.1,0.1c0,0,0.1,0.1,0.1,0.1v2.4h-6.4V3.3
	c0-0.1,0-0.1,0.1-0.1C16.8,3.2,16.8,3.1,16.9,3.1z M14.5,10.5c0-0.4,0.2-0.8,0.5-1.1c0.3-0.3,0.7-0.5,1.1-0.5h0.3
	c0.1,0,0.2,0,0.3-0.1c0.1-0.1,0.1-0.2,0.1-0.3V7h6.4v1.5c0,0.1,0,0.2,0.1,0.3c0.1,0.1,0.2,0.1,0.3,0.1h0.3c0.4,0,0.8,0.2,1.1,0.5
	c0.3,0.3,0.5,0.7,0.5,1.1v9.2H14.5V10.5z M7.3,14.6v-1.1c0-0.1,0-0.1,0.1-0.1c0,0,0.1-0.1,0.1-0.1h5.7v6.4h-3l-0.1,0
	c-0.8-0.5-1.5-1.3-2-2.2C7.6,16.6,7.3,15.6,7.3,14.6L7.3,14.6z M1.6,5.4c0-0.3,0.1-0.5,0.2-0.7c0.1-0.2,0.3-0.4,0.6-0.5
	c0.2-0.1,0.5-0.1,0.7-0.1c0.2,0,0.5,0.2,0.7,0.3c0.2,0.2,0.3,0.4,0.3,0.7c0,0.2,0,0.5-0.1,0.7C3.9,6.1,3.8,6.3,3.6,6.4
	C3.4,6.6,3.1,6.6,2.9,6.6c-0.2,0-0.3,0-0.5-0.1C2.2,6.5,2.1,6.4,2,6.3C1.8,6.2,1.7,6,1.7,5.9C1.6,5.7,1.6,5.5,1.6,5.4z M4.1,26.1
	c0,0.3-0.1,0.7-0.4,0.9c-0.2,0.2-0.6,0.4-0.9,0.4c-0.3,0-0.7-0.1-0.9-0.4c-0.2-0.2-0.4-0.6-0.4-0.9v-1.3h2.5V26.1z M31,26.1
	c0,0.3-0.1,0.7-0.4,0.9c-0.2,0.2-0.6,0.4-0.9,0.4s-0.7-0.1-0.9-0.4c-0.2-0.2-0.4-0.6-0.4-0.9v-1.3H31V26.1z M31,21v2.5H1.6V21H31z"
	/>
</svg>
