<?xml version="1.0" encoding="utf-8"?>
<!-- Generator: Adobe Illustrator 23.1.0, SVG Export Plug-In . SVG Version: 6.00 Build 0)  -->
<svg version="1.1" id="Layer_1" xmlns="http://www.w3.org/2000/svg" xmlns:xlink="http://www.w3.org/1999/xlink" x="0px" y="0px"
	 width="32px" height="32px" viewBox="0 0 32 32" style="enable-background:new 0 0 32 32;" xml:space="preserve">
<g>
	<path d="M5.1,7c0.1,0,0.2,0,0.2,0l0,0c0.2-0.1,0.3-0.2,0.4-0.4c0-0.1,0.1-0.2,0.1-0.3c0-0.1,0-0.2,0-0.3C5.7,5.9,5.6,5.7,5.4,5.6
		c-0.1,0-0.2-0.1-0.3-0.1c-0.1,0-0.2,0-0.3,0C4.6,5.7,4.5,5.8,4.4,6c0,0.1-0.1,0.2-0.1,0.3s0,0.2,0,0.3S4.4,6.9,4.6,7
		C4.8,7,4.9,7,5.1,7z"/>
	<path d="M22.7,20.1c-0.1,0-0.2-0.1-0.3-0.1c-0.1,0-0.2,0-0.3,0c-0.2,0.1-0.3,0.2-0.4,0.3c-0.1,0.1-0.1,0.3-0.1,0.5s0.1,0.3,0.2,0.4
		s0.3,0.2,0.5,0.2c0.1,0,0.2,0,0.2,0c0.2-0.1,0.3-0.2,0.4-0.4c0.1-0.2,0.1-0.4,0-0.6c0-0.1-0.1-0.2-0.1-0.2
		C22.9,20.2,22.8,20.1,22.7,20.1z"/>
	<path d="M9.6,15.2l6.1-6.6c0.1-0.1,0.2-0.3,0.2-0.5c0-0.2-0.1-0.4-0.2-0.5s-0.3-0.2-0.5-0.2s-0.4,0.1-0.5,0.2l-6.2,6.6
		c-0.1,0.1-0.2,0.3-0.2,0.5s0.1,0.4,0.2,0.5c0.1,0.1,0.3,0.2,0.5,0.2S9.4,15.3,9.6,15.2L9.6,15.2z"/>
	<path d="M9.3,20.3L9.3,20.3c0.1,0,0.2,0,0.3-0.1c0.1,0,0.2-0.1,0.2-0.2l6.1-7c0.1-0.1,0.2-0.3,0.2-0.5S16,12.1,15.9,12
		s-0.3-0.2-0.5-0.2S15,11.9,14.9,12l-6.1,7c-0.1,0.1-0.2,0.3-0.2,0.5c0,0.2,0.1,0.4,0.2,0.5C9,20.2,9.1,20.3,9.3,20.3z"/>
	<path d="M30.5,11.2H26l-3.2-9.8C22.7,1,22.4,0.6,22,0.5s-0.8-0.2-1.3-0.1L6.8,4.9C6.6,5,6.4,5.1,6.3,5.3c0,0.1-0.1,0.2-0.1,0.3
		c0,0.1,0,0.2,0,0.3c0.2,0.2,0.3,0.3,0.5,0.4c0.2,0.1,0.4,0.1,0.6,0l13.9-4.6h0.1l0.1,0.1l6,18.2v0.1l-0.1,0.1L7.7,26.7
		c0,0,0,0-0.1,0s0,0-0.1,0l-0.1-0.1L1.5,8.4V8.3l0.1-0.1l1.7-0.6c0.2,0,0.4-0.2,0.5-0.3c0.1-0.2,0.1-0.4,0-0.6
		C3.7,6.5,3.6,6.4,3.4,6.3C3.2,6.2,3,6.2,2.8,6.3L1.2,6.8C0.9,6.9,0.8,7,0.6,7.1C0.4,7.3,0.3,7.4,0.2,7.6C0.1,7.8,0,8,0,8.2
		s0,0.4,0.1,0.6l6,18.2c0.1,0.2,0.2,0.4,0.3,0.6c0.1,0.2,0.3,0.3,0.5,0.4s0.4,0.2,0.6,0.2c0.2,0,0.4,0,0.6-0.1l2.2-0.7v2.7
		c0,0.4,0.2,0.8,0.4,1.1c0.3,0.3,0.7,0.4,1.1,0.4h13.3c0.2,0,0.4-0.1,0.5-0.2c0.1-0.1,0.2-0.3,0.2-0.5s-0.1-0.4-0.2-0.5
		s-0.3-0.2-0.5-0.2H11.8h-0.1v-0.1v-3.2l16-5.3c0.2-0.1,0.4-0.2,0.6-0.3c0.2-0.1,0.3-0.3,0.4-0.5s0.2-0.4,0.2-0.6s0-0.4-0.1-0.6
		l-2.3-7h4h0.1v0.1v17.4v0.1h-0.1h-1.7c-0.1,0-0.2,0-0.3,0c-0.1,0-0.2,0.1-0.2,0.1c-0.1,0.1-0.1,0.1-0.2,0.2c0,0.1-0.1,0.2-0.1,0.3
		s0,0.2,0.1,0.3c0,0.1,0.1,0.2,0.2,0.2c0.1,0.1,0.2,0.1,0.2,0.1c0.1,0,0.2,0,0.3,0h1.7c0.4,0,0.8-0.2,1.1-0.4
		c0.3-0.3,0.4-0.7,0.4-1.1V12.7c0-0.2,0-0.4-0.1-0.6c-0.1-0.2-0.2-0.4-0.3-0.5s-0.3-0.3-0.5-0.3C30.9,11.3,30.7,11.2,30.5,11.2z"/>
	<path d="M27,30.2c-0.1,0-0.3,0-0.4,0.1c-0.1,0.1-0.2,0.2-0.3,0.3c-0.1,0.1-0.1,0.3,0,0.4c0,0.1,0.1,0.3,0.2,0.4
		c0.1,0.1,0.2,0.2,0.4,0.2c0.1,0,0.3,0,0.4,0c0.1-0.1,0.2-0.1,0.3-0.3c0.1-0.1,0.1-0.2,0.1-0.4s-0.1-0.4-0.2-0.5
		C27.4,30.3,27.2,30.2,27,30.2z"/>
</g>
</svg>
