<?xml version="1.0" encoding="utf-8"?>
<!-- Generator: Adobe Illustrator 23.1.0, SVG Export Plug-In . SVG Version: 6.00 Build 0)  -->
<svg version="1.1" id="Layer_1" xmlns="http://www.w3.org/2000/svg" xmlns:xlink="http://www.w3.org/1999/xlink" x="0px" y="0px"
	 width="32px" height="32px" viewBox="0 0 32 32" style="enable-background:new 0 0 32 32;" xml:space="preserve">
<path d="M28.6,13.3v-0.7c0-0.5-0.2-1.1-0.6-1.4s-0.9-0.6-1.4-0.6H20V7.3c0-0.2-0.1-0.4-0.2-0.5c-0.2-0.2-0.3-0.2-0.5-0.2h-2v-2
	c0-0.2-0.1-0.4-0.2-0.5s-0.3-0.2-0.5-0.2h-9L6.5,2.8C6.3,2.6,6.2,2.6,6,2.6s-0.4,0-0.5,0.2L1.7,6.6h-1c-0.2,0-0.4,0-0.5,0.2
	C0,6.9,0,7.1,0,7.3v18.6c0,0.2,0.1,0.4,0.2,0.5c0.1,0.1,0.3,0.2,0.5,0.2h2.7c0.1,0.4,0.3,0.8,0.5,1.2l0,0c0.3,0.4,1,1.4,2.7,1.5h0.1
	c0.8,0,1.5-0.3,2.1-0.8s1-1.2,1.2-1.9h12.1c0.1,0.4,0.3,0.8,0.5,1.2l0,0c0.3,0.4,0.7,0.8,1.1,1c0.5,0.3,1,0.4,1.5,0.4h0.1
	c0.8,0,1.5-0.3,2.1-0.8s1-1.2,1.2-1.9h2.6c0.2,0,0.4-0.1,0.5-0.2s0.2-0.3,0.2-0.5v-8.6c0-0.9-0.3-1.9-0.9-2.6
	C30.5,13.9,29.6,13.4,28.6,13.3L28.6,13.3z M22.5,23.9c-0.3,0.4-0.5,0.8-0.6,1.3h-2v-1.3H22.5z M22,13.9v6c0,0.1,0,0.2,0.1,0.3
	c0,0.1,0.1,0.2,0.2,0.2c0.1,0.1,0.1,0.1,0.2,0.2c0.1,0,0.2,0.1,0.3,0.1h7.9v4.6h-2c-0.2-0.8-0.6-1.4-1.2-1.9s-1.3-0.8-2.1-0.8H20V12
	h6.6c0.2,0,0.3,0.1,0.4,0.2c0.2,0.1,0.2,0.2,0.2,0.4v0.6h-4.6c-0.1,0-0.2,0-0.3,0.1c-0.1,0-0.2,0.1-0.2,0.2
	c-0.1,0.1-0.1,0.1-0.2,0.2C22,13.8,22,13.8,22,13.9L22,13.9z M23.4,19.3v-4.6h1.3v4.6H23.4z M30.7,17.3v2h-4.6v-4.6h2
	c0.7,0,1.4,0.3,1.9,0.8C30.3,15.9,30.7,16.5,30.7,17.3z M27.3,25.9c0,0.4-0.1,0.8-0.3,1.1s-0.5,0.6-0.9,0.7S25.3,28,25,27.9
	c-0.4-0.1-0.7-0.3-1-0.5c-0.3-0.3-0.5-0.6-0.5-1c-0.1-0.4,0-0.8,0.1-1.1c0.1-0.4,0.4-0.7,0.7-0.9c0.3-0.2,0.7-0.3,1.1-0.3l0,0
	c0.3,0,0.5,0,0.7,0.1s0.5,0.2,0.6,0.4c0.2,0.2,0.3,0.4,0.4,0.6C27.3,25.4,27.3,25.6,27.3,25.9z M3.7,6.6L6,4.3l0.8,0.8l1.5,1.5H3.7z
	 M9.1,5.3H16v1.3h-5.7L9.1,5.3z M18.6,8v17.2H9.9c-0.2-0.8-0.6-1.4-1.2-1.9c-0.6-0.5-1.3-0.7-2.1-0.7s-1.5,0.3-2.1,0.7
	c-0.6,0.5-1,1.2-1.2,1.9h-2V8H18.6z M8.6,25.9c0,0.4-0.1,0.8-0.3,1.1c-0.2,0.3-0.5,0.6-0.9,0.7S6.6,28,6.3,27.9
	c-0.4-0.1-0.7-0.3-1-0.5c-0.3-0.3-0.5-0.6-0.5-1c-0.1-0.4,0-0.8,0.1-1.1c0.1-0.4,0.4-0.7,0.7-0.9c0.3-0.2,0.7-0.3,1.1-0.3
	c0.5,0,1,0.2,1.4,0.6C8.4,24.9,8.6,25.4,8.6,25.9L8.6,25.9z"/>
</svg>
