<svg id="Layer_2" data-name="Layer 1" xmlns="http://www.w3.org/2000/svg" width="16" height="16" viewBox="0 0 20 16"><path class="cls-1" d="M22,5.9a9.06,9.06,0,0,1-2.35.64,4.09,4.09,0,0,0,1.81-2.25,8.12,8.12,0,0,1-2.62,1A4.12,4.12,0,0,0,11.74,8a4,4,0,0,0,.12.92A11.67,11.67,0,0,1,3.4,4.74a4,4,0,0,0,1.26,5.39,4,4,0,0,1-1.86-.5v0a4,4,0,0,0,.28,1.46,4.09,4.09,0,0,0,3,2.49,3.91,3.91,0,0,1-1.86.07,4.16,4.16,0,0,0,3.83,2.82A8.3,8.3,0,0,1,3,18.24c-.34,0-.65,0-1,0A11.83,11.83,0,0,0,8.29,20a11.42,11.42,0,0,0,11.4-9A11.33,11.33,0,0,0,20,8.51V8A8.44,8.44,0,0,0,22,5.9Z" transform="translate(-2 -4)"></path></svg>